Movie Information:
 
http://www.imdb.com/title/tt1278340/

Release Date: 9 January 2009 (Norway)

Genre: Comedy | Horror

Plot: While investigating a young nun's rape, a corrupt New York City police detective, with a serious drug and gambling addiction, tries to change his ways and find forgiveness.

Cast:
Vegar Hoel ... Martin
Stig Frode Henriksen ... Roy
Charlotte Frogner ... Hanna
Lasse Valdal ... Vegard
Evy Kasseth Røsten ... Liv
Jeppe Laursen ... Erlend
Jenny Skavlan ... Chris
Ane Dahl Torp ... Sara
Bjørn Sundquist ... The Wanderer
Ørjan Gamst ... Herzog
 
http://www.imagebam.com/image/30c8d395841556


File Name

Dead Snow 2009 1080p BRRip H264.mp4

File Size
Format : MPEG-4
Format profile : Base Media
Codec ID : isom
File size : 3.65 GiB
Duration : 1h 31mn
Overall bit rate : 5 704 Kbps

Video
ID : 1
Format : AVC
Format/Info : Advanced Video Codec
Format profile : High@L4.1
Format settings, CABAC : Yes
Format settings, ReFrames : 3 frames
Codec ID : avc1
Codec ID/Info : Advanced Video Coding
Duration : 1h 31mn
Bit rate mode : Variable
Bit rate : 5 199 Kbps
Maximum bit rate : 27.8 Mbps
Width : 1 920 pixels
Height : 1 080 pixels
Display aspect ratio : 16:9
Frame rate mode : Constant
Frame rate : 24.000 fps
Resolution : 24 bits
Colorimetry : 4:2:0
Scan type : Progressive
Bits/(Pixel*Frame) : 0.104
Stream size : 3.32 GiB (91%)

Audio
ID : 2
Format : AAC
Format/Info : Advanced Audio Codec
Format version : Version 4
Format profile : LC
Format settings, SBR : No
Codec ID : 40
Duration : 1h 31mn
Bit rate mode : Variable
Bit rate : 512 Kbps
Maximum bit rate : 524 Kbps
Channel(s) : 2 channels
Channel positions : L R
Sampling rate : 48.0 KHz
Resolution : 16 bits
Stream size : 335 MiB (9%)

English SRT : External

Language : English
